<svg width="211" height="71" viewBox="0 0 211 71" fill="none" xmlns="http://www.w3.org/2000/svg">
      <path d="M57.916 60.7556V51.3011H61.2214C61.88 51.3011 62.4232 51.4149 62.851 51.6427C63.2788 51.8674 63.5974 52.1705 63.8066 52.5521C64.0159 52.9307 64.1206 53.3508 64.1206 53.8124C64.1206 54.2187 64.0482 54.5541 63.9036 54.8188C63.762 55.0835 63.5743 55.2928 63.3404 55.4467C63.1096 55.6005 62.8587 55.7144 62.5879 55.7883V55.8806C62.8772 55.8991 63.168 56.0006 63.4604 56.1853C63.7528 56.37 63.9975 56.6346 64.1944 56.9793C64.3914 57.324 64.4899 57.7457 64.4899 58.2443C64.4899 58.7182 64.3822 59.1445 64.1667 59.523C63.9513 59.9016 63.6112 60.2016 63.1465 60.4232C62.6818 60.6448 62.077 60.7556 61.3322 60.7556H57.916ZM59.0609 59.74H61.3322C62.0801 59.74 62.611 59.5953 62.9249 59.306C63.2419 59.0137 63.4004 58.6597 63.4004 58.2443C63.4004 57.9242 63.3188 57.6287 63.1557 57.3579C62.9926 57.084 62.7602 56.8655 62.4586 56.7023C62.157 56.5362 61.8 56.4531 61.3876 56.4531H59.0609V59.74ZM59.0609 55.4559H61.1845C61.5292 55.4559 61.84 55.3882 62.117 55.2528C62.3971 55.1174 62.6187 54.9265 62.7818 54.6803C62.948 54.4341 63.0311 54.1448 63.0311 53.8124C63.0311 53.397 62.8864 53.0446 62.5971 52.7553C62.3078 52.4629 61.8493 52.3167 61.2214 52.3167H59.0609V55.4559ZM69.4564 60.9033C68.7731 60.9033 68.1838 60.7525 67.6883 60.4509C67.1958 60.1462 66.8158 59.7215 66.548 59.1768C66.2833 58.629 66.151 57.9919 66.151 57.2656C66.151 56.5392 66.2833 55.8991 66.548 55.3451C66.8158 54.788 67.1882 54.3541 67.6652 54.0433C68.1453 53.7293 68.7054 53.5724 69.3456 53.5724C69.7149 53.5724 70.0796 53.6339 70.4397 53.757C70.7998 53.8801 71.1275 54.0802 71.423 54.3572C71.7185 54.6311 71.9539 54.9943 72.1293 55.4467C72.3048 55.8991 72.3925 56.4561 72.3925 57.1178V57.5795H66.9266V56.6377H71.2845C71.2845 56.2376 71.2045 55.8806 71.0445 55.5667C70.8875 55.2528 70.6628 55.005 70.3704 54.8234C70.0811 54.6419 69.7395 54.5511 69.3456 54.5511C68.9116 54.5511 68.5362 54.6588 68.2192 54.8742C67.9052 55.0866 67.6637 55.3636 67.4944 55.7052C67.3251 56.0468 67.2405 56.413 67.2405 56.8039V57.4318C67.2405 57.9673 67.3328 58.4212 67.5175 58.7936C67.7052 59.1629 67.9653 59.4445 68.2976 59.6384C68.63 59.8292 69.0163 59.9246 69.4564 59.9246C69.7426 59.9246 70.0011 59.8846 70.232 59.8046C70.4659 59.7215 70.6674 59.5984 70.8367 59.4353C71.006 59.2691 71.1368 59.0629 71.2291 58.8167L72.2817 59.1121C72.1709 59.4692 71.9847 59.7831 71.7231 60.0539C71.4615 60.3217 71.1383 60.5309 70.7536 60.6818C70.3689 60.8295 69.9365 60.9033 69.4564 60.9033ZM77.1905 60.9033C76.5257 60.9033 75.9532 60.7464 75.4731 60.4325C74.993 60.1185 74.6237 59.6861 74.3652 59.1352C74.1067 58.5843 73.9774 57.955 73.9774 57.2471C73.9774 56.5269 74.1097 55.8914 74.3744 55.3405C74.6422 54.7865 75.0146 54.3541 75.4916 54.0433C75.9717 53.7293 76.5318 53.5724 77.172 53.5724C77.6706 53.5724 78.1199 53.6647 78.52 53.8494C78.9201 54.034 79.2479 54.2925 79.5033 54.6249C79.7588 54.9573 79.9173 55.3451 79.9788 55.7883H78.8893C78.8062 55.4651 78.6216 55.1789 78.3353 54.9296C78.0522 54.6773 77.6706 54.5511 77.1905 54.5511C76.7657 54.5511 76.3934 54.6619 76.0733 54.8835C75.7563 55.102 75.5085 55.4113 75.33 55.8114C75.1546 56.2084 75.0669 56.6746 75.0669 57.2102C75.0669 57.758 75.1531 58.235 75.3254 58.6413C75.5008 59.0475 75.747 59.363 76.064 59.5876C76.3841 59.8123 76.7596 59.9246 77.1905 59.9246C77.4736 59.9246 77.7306 59.8754 77.9614 59.7769C78.1922 59.6784 78.3877 59.5369 78.5477 59.3522C78.7077 59.1675 78.8216 58.946 78.8893 58.6874H79.9788C79.9173 59.106 79.7649 59.483 79.5218 59.8185C79.2817 60.1509 78.9632 60.4155 78.5662 60.6125C78.1722 60.8064 77.7137 60.9033 77.1905 60.9033ZM84.7122 60.9033C84.072 60.9033 83.5104 60.751 83.0272 60.4463C82.5471 60.1416 82.1716 59.7154 81.9007 59.1675C81.633 58.6197 81.4991 57.9796 81.4991 57.2471C81.4991 56.5085 81.633 55.8637 81.9007 55.3128C82.1716 54.7619 82.5471 54.3341 83.0272 54.0294C83.5104 53.7247 84.072 53.5724 84.7122 53.5724C85.3523 53.5724 85.9125 53.7247 86.3926 54.0294C86.8758 54.3341 87.2512 54.7619 87.519 55.3128C87.7898 55.8637 87.9253 56.5085 87.9253 57.2471C87.9253 57.9796 87.7898 58.6197 87.519 59.1675C87.2512 59.7154 86.8758 60.1416 86.3926 60.4463C85.9125 60.751 85.3523 60.9033 84.7122 60.9033ZM84.7122 59.9246C85.1985 59.9246 85.5985 59.8 85.9125 59.5507C86.2264 59.3014 86.4588 58.9737 86.6096 58.5674C86.7604 58.1612 86.8358 57.7211 86.8358 57.2471C86.8358 56.7731 86.7604 56.3315 86.6096 55.9222C86.4588 55.5128 86.2264 55.182 85.9125 54.9296C85.5985 54.6773 85.1985 54.5511 84.7122 54.5511C84.2259 54.5511 83.8258 54.6773 83.5119 54.9296C83.198 55.182 82.9656 55.5128 82.8148 55.9222C82.664 56.3315 82.5886 56.7731 82.5886 57.2471C82.5886 57.7211 82.664 58.1612 82.8148 58.5674C82.9656 58.9737 83.198 59.3014 83.5119 59.5507C83.8258 59.8 84.2259 59.9246 84.7122 59.9246ZM89.8483 60.7556V53.6647H90.9009V54.7727H90.9932C91.141 54.3941 91.3795 54.1002 91.7088 53.8909C92.0381 53.6786 92.4336 53.5724 92.8952 53.5724C93.363 53.5724 93.7523 53.6786 94.0632 53.8909C94.3771 54.1002 94.6218 54.3941 94.7972 54.7727H94.8711C95.0526 54.4064 95.325 54.1156 95.6882 53.9001C96.0513 53.6816 96.4868 53.5724 96.9946 53.5724C97.6286 53.5724 98.1472 53.7709 98.5504 54.1679C98.9536 54.5618 99.1552 55.1758 99.1552 56.0099V60.7556H98.0657V56.0099C98.0657 55.4867 97.9226 55.1127 97.6363 54.8881C97.3501 54.6634 97.0131 54.5511 96.6253 54.5511C96.1267 54.5511 95.7405 54.7019 95.4666 55.0035C95.1927 55.302 95.0557 55.6806 95.0557 56.1391V60.7556H93.9478V55.8991C93.9478 55.4959 93.817 55.1712 93.5554 54.925C93.2938 54.6757 92.9568 54.5511 92.5444 54.5511C92.2612 54.5511 91.9965 54.6265 91.7503 54.7773C91.5072 54.9281 91.3102 55.1374 91.1594 55.4051C91.0117 55.6698 90.9378 55.976 90.9378 56.3238V60.7556H89.8483ZM104.38 60.9033C103.697 60.9033 103.108 60.7525 102.612 60.4509C102.12 60.1462 101.74 59.7215 101.472 59.1768C101.207 58.629 101.075 57.9919 101.075 57.2656C101.075 56.5392 101.207 55.8991 101.472 55.3451C101.74 54.788 102.112 54.3541 102.589 54.0433C103.069 53.7293 103.629 53.5724 104.269 53.5724C104.639 53.5724 105.003 53.6339 105.363 53.757C105.724 53.8801 106.051 54.0802 106.347 54.3572C106.642 54.6311 106.878 54.9943 107.053 55.4467C107.229 55.8991 107.316 56.4561 107.316 57.1178V57.5795H101.85V56.6377H106.208C106.208 56.2376 106.128 55.8806 105.968 55.5667C105.811 55.2528 105.587 55.005 105.294 54.8234C105.005 54.6419 104.663 54.5511 104.269 54.5511C103.835 54.5511 103.46 54.6588 103.143 54.8742C102.829 55.0866 102.587 55.3636 102.418 55.7052C102.249 56.0468 102.164 56.413 102.164 56.8039V57.4318C102.164 57.9673 102.257 58.4212 102.441 58.7936C102.629 59.1629 102.889 59.4445 103.221 59.6384C103.554 59.8292 103.94 59.9246 104.38 59.9246C104.666 59.9246 104.925 59.8846 105.156 59.8046C105.39 59.7215 105.591 59.5984 105.761 59.4353C105.93 59.2691 106.061 59.0629 106.153 58.8167L107.205 59.1121C107.095 59.4692 106.908 59.7831 106.647 60.0539C106.385 60.3217 106.062 60.5309 105.677 60.6818C105.293 60.8295 104.86 60.9033 104.38 60.9033ZM113.298 60.7556V51.3011H119.004V52.3167H114.442V55.5113H118.708V56.5269H114.442V59.74H119.077V60.7556H113.298ZM121.992 53.6647L123.691 56.5639L125.39 53.6647H126.645L124.355 57.2102L126.645 60.7556H125.39L123.691 58.0042L121.992 60.7556H120.736L122.989 57.2102L120.736 53.6647H121.992ZM128.46 63.4147V53.6647H129.512V54.7911H129.642C129.722 54.668 129.832 54.5111 129.974 54.3202C130.119 54.1264 130.325 53.954 130.593 53.8032C130.863 53.6493 131.23 53.5724 131.691 53.5724C132.288 53.5724 132.815 53.7216 133.27 54.0202C133.726 54.3187 134.081 54.7419 134.337 55.2897C134.592 55.8375 134.72 56.4838 134.72 57.2286C134.72 57.9796 134.592 58.6305 134.337 59.1814C134.081 59.7292 133.727 60.1539 133.275 60.4555C132.822 60.7541 132.301 60.9033 131.71 60.9033C131.254 60.9033 130.89 60.8279 130.616 60.6771C130.342 60.5233 130.131 60.3494 129.983 60.1555C129.836 59.9585 129.722 59.7954 129.642 59.6661H129.549V63.4147H128.46ZM129.531 57.2102C129.531 57.7457 129.609 58.2181 129.766 58.6274C129.923 59.0337 130.153 59.3522 130.454 59.583C130.756 59.8108 131.125 59.9246 131.562 59.9246C132.018 59.9246 132.398 59.8046 132.702 59.5646C133.01 59.3214 133.241 58.9952 133.395 58.5859C133.552 58.1735 133.63 57.7149 133.63 57.2102C133.63 56.7116 133.553 56.2622 133.399 55.8621C133.249 55.459 133.019 55.1404 132.712 54.9065C132.407 54.6696 132.024 54.5511 131.562 54.5511C131.119 54.5511 130.747 54.6634 130.445 54.8881C130.143 55.1097 129.916 55.4205 129.762 55.8206C129.608 56.2176 129.531 56.6808 129.531 57.2102ZM139.615 60.9033C138.932 60.9033 138.342 60.7525 137.847 60.4509C137.354 60.1462 136.974 59.7215 136.706 59.1768C136.442 58.629 136.309 57.9919 136.309 57.2656C136.309 56.5392 136.442 55.8991 136.706 55.3451C136.974 54.788 137.347 54.3541 137.824 54.0433C138.304 53.7293 138.864 53.5724 139.504 53.5724C139.873 53.5724 140.238 53.6339 140.598 53.757C140.958 53.8801 141.286 54.0802 141.581 54.3572C141.877 54.6311 142.112 54.9943 142.288 55.4467C142.463 55.8991 142.551 56.4561 142.551 57.1178V57.5795H137.085V56.6377H141.443C141.443 56.2376 141.363 55.8806 141.203 55.5667C141.046 55.2528 140.821 55.005 140.529 54.8234C140.24 54.6419 139.898 54.5511 139.504 54.5511C139.07 54.5511 138.695 54.6588 138.378 54.8742C138.064 55.0866 137.822 55.3636 137.653 55.7052C137.483 56.0468 137.399 56.413 137.399 56.8039V57.4318C137.399 57.9673 137.491 58.4212 137.676 58.7936C137.864 59.1629 138.124 59.4445 138.456 59.6384C138.788 59.8292 139.175 59.9246 139.615 59.9246C139.901 59.9246 140.159 59.8846 140.39 59.8046C140.624 59.7215 140.826 59.5984 140.995 59.4353C141.164 59.2691 141.295 59.0629 141.387 58.8167L142.44 59.1121C142.329 59.4692 142.143 59.7831 141.881 60.0539C141.62 60.3217 141.297 60.5309 140.912 60.6818C140.527 60.8295 140.095 60.9033 139.615 60.9033ZM144.468 60.7556V53.6647H145.521V54.7357H145.595C145.724 54.3849 145.958 54.1002 146.296 53.8817C146.635 53.6632 147.016 53.5539 147.441 53.5539C147.521 53.5539 147.621 53.5554 147.741 53.5585C147.861 53.5616 147.952 53.5662 148.014 53.5724V54.6803C147.977 54.6711 147.892 54.6572 147.76 54.6388C147.63 54.6172 147.493 54.6065 147.349 54.6065C147.004 54.6065 146.696 54.6788 146.426 54.8234C146.158 54.965 145.945 55.162 145.788 55.4144C145.635 55.6636 145.558 55.9483 145.558 56.2684V60.7556H144.468ZM153.093 53.6647V54.588H149.418V53.6647H153.093ZM150.49 51.9658H151.579V58.7244C151.579 59.0321 151.624 59.263 151.713 59.4168C151.805 59.5676 151.922 59.6692 152.064 59.7215C152.208 59.7708 152.361 59.7954 152.521 59.7954C152.641 59.7954 152.739 59.7892 152.816 59.7769C152.893 59.7615 152.955 59.7492 153.001 59.74L153.222 60.7187C153.149 60.7464 153.045 60.7741 152.913 60.8018C152.781 60.8326 152.613 60.8479 152.41 60.8479C152.102 60.8479 151.801 60.7818 151.505 60.6494C151.213 60.5171 150.97 60.3155 150.776 60.0447C150.585 59.7738 150.49 59.4322 150.49 59.0198V51.9658Z" fill="#4E616D"/>
      <path d="M61.9441 32.2083V44.0951H53.8794V10.5078C56.7833 10.8861 59.8158 9.28597 62.517 11.8163C68.664 8.59625 73.5051 9.21109 77.2237 13.8027C81.2229 18.741 81.1761 26.0048 77.1184 30.8328C73.3648 35.2943 68.5626 35.8264 61.948 32.2083H61.9441ZM71.7978 22.2409C71.7628 19.2573 69.4474 16.8492 66.68 16.9123C63.9787 16.9754 61.8973 19.3007 61.9129 22.2409C61.9285 25.252 63.9476 27.4867 66.6878 27.5261C69.541 27.5655 71.8329 25.1968 71.7978 22.2409Z" fill="#40484D"/>
      <path d="M18.7522 34.2963H0V0H18.7952V7.68521H8.51198V26.4302H18.7522V34.2924V34.2963Z" fill="#40484D"/>
      <path d="M107.596 23.5189H91.0516C91.0003 26.0299 91.7148 27.8305 94.1425 28.3718C96.4005 28.8786 98.4887 28.5868 99.823 26.3332C100.127 25.8187 100.83 25.239 101.386 25.2044C103.455 25.07 105.539 25.1506 107.584 25.1506C108.259 31.593 101.189 34.4687 95.1018 34.2882C87.108 34.0502 82.1815 28.5945 82.742 20.5128C83.2039 13.7978 89.2752 9.1983 96.7953 9.8625C104.236 10.519 108.673 15.9939 107.6 23.5189H107.596ZM100.04 18.5048C99.5269 16.0246 98.019 15.1032 95.7926 15.1608C93.6056 15.2145 91.6871 15.7328 91.3516 18.5048H100.04Z" fill="#40484D"/>
      <path d="M181.586 23.5789H165.032C164.886 25.9256 165.547 27.9266 167.824 28.1916C169.582 28.3952 172.175 28.0188 173.141 26.8935C174.38 25.4455 175.433 25.0576 177.112 25.1344C178.613 25.2036 180.117 25.1498 181.618 25.1498C181.538 31.1489 176.653 34.5364 168.916 34.2829C161.105 34.0294 156.239 28.7293 156.651 20.9212C157.019 13.912 162.918 9.2417 170.631 9.85237C178.133 10.4477 182.409 15.6326 181.586 23.5789ZM165.123 18.4632H174.083C173.418 15.9821 171.874 15.0872 169.609 15.1487C167.428 15.2063 165.749 15.9437 165.123 18.4632Z" fill="#40484D"/>
      <path d="M36.2285 17.323C38.9657 10.6675 43.8024 10.5136 49.4478 11.4908C46.5279 15.1533 43.7285 18.6657 40.828 22.3012C43.8724 26.0868 46.8312 29.7685 50.1205 33.8657C47.0411 33.8657 44.0668 34.6236 41.8817 33.6502C39.7199 32.6885 38.3552 29.9801 36.244 27.591C33.3863 33.2309 29.0317 35.6469 22.5542 33.5464C25.6335 29.7377 28.6973 25.9483 31.8583 22.0396C29.0589 18.531 26.3528 15.1417 23.5301 11.6024C29.0939 10.2097 33.4991 11.0407 36.2324 17.323H36.2285Z" fill="#40484D"/>
      <path d="M183.865 11.4924C189.463 10.4193 194.129 10.7126 196.617 17.5641C199.501 10.7512 204.289 10.3961 210.067 11.5078C207.113 15.1632 204.277 18.6757 201.358 22.2887C204.418 26.0869 207.431 29.831 210.506 33.6485C204.194 35.5129 200.022 33.2587 197.064 27.1406C193.934 33.3127 189.475 35.5553 182.94 33.6215C186.09 29.75 189.173 25.9518 192.351 22.0455C189.534 18.5484 186.799 15.1477 183.865 11.5001V11.4924Z" fill="#40484D"/>
      <path d="M147.821 34.1755C140.668 34.9753 134.584 31.8347 135.29 23.7511C135.454 21.8901 135.314 20.0018 135.314 17.9497C134.512 17.7 133.741 17.4581 132.819 17.1694V11.0248C137.47 10.026 134.225 6.08171 135.734 3.67456H143.602C143.602 9.82313 143.602 15.8079 143.602 21.7926C143.602 24.3753 143.43 26.9931 146.967 27.7539C147.374 27.8397 147.738 28.9321 147.789 29.5836C147.909 31.0622 147.829 32.5604 147.829 34.1716L147.821 34.1755Z" fill="#40484D"/>
      <path d="M120.289 11.0237V33.0713H111.518V11.0237H120.289Z" fill="#40484D"/>
      <path d="M154.117 15.1879C154.189 17.3479 152.072 19.5262 149.833 19.5958C147.556 19.669 145.428 17.6774 145.352 15.4039C145.275 13.145 147.27 11.0912 149.605 11.0253C151.931 10.9594 154.044 12.9071 154.121 15.1842L154.117 15.1879Z" fill="#76CFEB"/>
      <path d="M130.313 15.3052C130.304 17.5596 128.508 19.6087 126.553 19.5977C124.627 19.5867 122.789 17.479 122.795 15.2796C122.799 13.0288 124.591 11.0127 126.579 11.0237C128.58 11.0347 130.326 13.0362 130.313 15.3089V15.3052Z" fill="#76CFEB"/>
      <path d="M15.1355 12.2492C17.7721 12.2963 20.0962 14.3543 20.0478 16.6043C19.9993 18.8543 17.574 20.8724 14.9682 20.8217C12.38 20.771 9.97671 18.6586 10.0251 16.4702C10.0736 14.2673 12.5693 12.2057 15.1355 12.2492Z" fill="#76CFEB"/>
      </svg>